<svg width="153" height="29" viewBox="0 0 153 29" fill="none" xmlns="http://www.w3.org/2000/svg">
<path d="M8.7793 14.4873C17.3495 27.713 4.04107 33.4397 0 24.9443C0.647921 26.3009 2.41665 27.3208 4.25293 27.3965C10.223 28.1078 11.1221 19.7004 8.7793 14.4873ZM3.31836 25.8467L3.32129 25.8496C3.31707 25.847 3.31299 25.8435 3.30859 25.8408C3.31196 25.8426 3.31509 25.8449 3.31836 25.8467ZM5.5957 8.27246C5.61431 8.29471 6.39838 9.23441 7.38184 10.7891C6.76642 14.4933 2.17815 17.5654 1.9541 22.1484C1.82799 24.7315 2.91171 25.5946 3.30859 25.8408C2.64404 25.4816 0.174947 23.9236 0 20.5635C0.198597 16.8161 3.3723 15.813 5.5957 8.27246ZM20.3799 6.21582C28.9498 19.4414 15.6415 25.1676 11.6006 16.6719C12.2484 18.0286 14.0171 19.0483 15.8535 19.124C21.8235 19.8353 22.7225 11.429 20.3799 6.21582ZM35.6465 9.35059C35.7619 9.28858 36.0262 9.28882 36.1035 9.36621L38.1436 14.7822L40.0176 19.3467L41.1289 19.3701L41.0781 19.6416H37.4893C37.387 19.641 37.3577 19.4131 37.3789 19.3662L38.7383 19.3545L37.4082 15.6729H37.4043L33.5723 15.6807C33.3624 16.3847 32.2337 18.6307 32.7334 19.0938C32.8916 19.2415 33.1788 19.2999 33.4141 19.3271L33.6621 19.3584C33.7302 19.3667 33.7388 19.6366 33.6709 19.6377L30.7324 19.6455C30.6768 19.6455 30.5613 19.5096 30.5869 19.4668C30.9846 18.81 31.2497 20.4736 32.8662 16.3838L35.6465 9.35059ZM43.3076 12.4082C43.222 14.7628 43.2059 17.0127 43.3037 19.3311L44.2217 19.3477C44.2867 19.3488 44.3272 19.6377 44.2539 19.6377H41.2441L41.2402 19.6455C41.1303 19.6453 41.1307 19.3634 41.2041 19.3594L42.1826 19.3389V12.8232L41.2891 12.8027C41.2441 12.8025 41.1423 12.7307 41.1299 12.6904C41.1176 12.634 41.2204 12.5087 41.2979 12.5127C41.9175 12.5248 42.6024 12.4888 43.3076 12.4082ZM48.5352 13.71C49.0144 12.7552 49.9134 12.1184 50.9678 12.54C51.451 12.735 51.7501 13.2488 51.6582 13.7461C51.5783 14.1794 51.2195 14.4184 50.8164 14.3789C50.445 14.3431 50.1529 14.0325 50.1328 13.6348C50.1128 13.237 50.3765 12.9661 50.8037 12.8428C50.2646 12.5008 49.6577 12.7557 49.2783 13.2012C48.7951 13.7661 48.5478 14.5299 48.5039 15.3096C48.428 16.666 48.4793 17.9587 48.5312 19.3311L49.4141 19.3398C49.474 19.3398 49.5298 19.626 49.4619 19.626V19.6299L46.6299 19.6455C46.5341 19.6453 46.4103 19.5937 46.4023 19.5381C46.3948 19.4822 46.4911 19.3516 46.5469 19.3516L47.4375 19.3438V12.9062L46.6221 12.8945C46.578 12.8944 46.4667 12.8626 46.4268 12.8428C46.3748 12.8189 46.4426 12.6124 46.5225 12.6123C47.0497 12.6123 47.8605 12.5646 48.5195 12.501L48.5352 13.71ZM68.3857 9.30566C68.4481 9.30566 68.5558 9.44467 68.5479 9.49902C68.4979 9.79296 67.9741 9.49182 67.5703 10.0176C67.3872 10.2535 67.2037 10.5321 67.0996 10.8145L65.8506 14.2344L64.0645 19.4824C64.0395 19.552 63.865 19.6532 63.79 19.6455C63.6985 19.6416 63.5741 19.5096 63.5283 19.3936L61.3213 13.5918L59.2734 19.5254C59.2235 19.6684 58.9282 19.6608 58.8281 19.5449C57.6084 16.2069 56.3094 12.95 54.8857 9.67383L53.8613 9.64258C53.7701 9.64189 53.7579 9.37533 53.8369 9.31738H57.4375C57.5041 9.39468 57.5042 9.64606 57.417 9.64648L56.126 9.67773C57.15 12.567 58.2037 15.3168 59.415 18.1094L61.1338 13.1475L59.6484 9.66992L58.6367 9.64648C58.5451 9.64648 58.5324 9.32129 58.624 9.32129H62.1787C62.2702 9.32129 62.2916 9.60753 62.2168 9.64648L60.8965 9.67773L63.7656 17.3242C63.878 17.6259 63.9983 17.8742 64.1523 18.1875L66.6455 10.6865V10.6748C66.7369 10.3964 66.6795 10.0754 66.5381 9.90137C66.3342 9.65386 65.9259 9.67305 65.5264 9.59961C65.4556 9.58801 65.497 9.31348 65.5928 9.31348L68.3857 9.30566ZM68.5342 13.0078C69.4456 12.3468 70.8459 12.2893 71.9424 12.5605C72.6908 12.7439 73.2635 13.3243 73.2637 14.0234L73.2773 18.4521C73.2773 18.689 73.3913 19.0565 73.5938 19.1406C74.0207 19.3125 74.316 19.0068 74.5713 18.7891L74.7041 18.6738C74.7443 18.6441 74.8882 18.7354 74.875 18.7773C74.6943 19.3352 73.598 19.9657 72.6338 19.3926C72.339 19.2169 72.216 18.8921 72.0928 18.5713C71.4719 19.4042 70.4807 19.7594 69.3711 19.6143H69.375C68.1511 19.4536 67.3982 18.6202 67.5039 17.5771C67.6847 15.8006 70.4723 15.518 72.1367 15.625C72.1455 14.9412 72.3345 13.3061 71.5645 12.9121C70.7102 12.4803 69.5776 12.6401 68.8643 13.2744C69.3442 13.3432 69.6312 13.531 69.6885 13.9131C69.7457 14.2951 69.5775 14.6775 69.1328 14.7998C68.719 14.9142 68.2303 14.7457 68.0498 14.3408C67.8342 13.8634 68.0721 13.3402 68.5342 13.0078ZM76.8271 10.3438C76.8863 10.3167 76.9902 10.4597 76.9902 10.5332L76.957 12.6221L78.6006 12.5752C78.6928 12.5752 78.7191 12.9376 78.6309 12.9541L76.957 12.9697L76.9346 15.7939L77.0049 18.126C77.016 18.447 77.1567 18.8423 77.4043 18.9971H77.3965C78.2831 19.5615 79.1443 18.2389 79.0928 18.7568C79.0854 18.8187 79.0297 18.9428 78.9854 18.9854C78.4607 19.4805 77.8768 19.7236 77.1748 19.623C76.1846 19.4838 76.0295 18.5711 76.0332 17.6582L76.0586 12.9658H74.9287C74.877 12.931 74.862 12.6987 74.8916 12.6484C75.2425 12.5982 75.6083 12.5792 75.9297 12.3975C76.7273 11.9489 76.5321 10.488 76.8271 10.3438ZM89.6689 13.7949C90.0515 12.8145 90.8846 12.232 91.8809 12.4551C92.4428 12.5826 92.8416 13.0696 92.8018 13.6436C92.7737 14.0857 92.4349 14.3768 92.0645 14.3809C91.6261 14.3848 91.3231 14.0857 91.2832 13.6992C91.2314 13.2369 91.5182 12.9254 91.9805 12.8496C91.4266 12.4872 90.8086 12.731 90.4102 13.1973C89.9361 13.7552 89.7012 14.4966 89.6494 15.2617C89.5538 16.6247 89.6209 17.9559 89.6807 19.3428L89.6768 19.3506H90.458C90.5258 19.3506 90.6459 19.419 90.6777 19.4629C90.7084 19.5072 90.5939 19.6449 90.5264 19.6455H87.6523C87.5926 19.6413 87.5092 19.482 87.5371 19.4541C87.5772 19.4182 87.6882 19.3546 87.7559 19.3545L88.5771 19.3467L88.585 12.9062L87.7559 12.8857C87.6921 12.8856 87.5768 12.8181 87.5449 12.7783C87.513 12.7385 87.6208 12.5986 87.6846 12.5986C88.3301 12.6066 88.9917 12.5631 89.6611 12.4834L89.6689 13.7949ZM97.5908 9.30566C97.6676 9.30954 97.8211 9.62311 97.5225 9.63086L96.29 9.6543C97.3822 12.536 98.4914 15.2823 99.7627 18.1523L102.459 10.6807C102.553 10.4212 102.501 10.096 102.356 9.90625C102.211 9.71656 101.879 9.66966 101.589 9.63867L101.358 9.6123C101.29 9.60456 101.341 9.30957 101.431 9.30957H104.259C104.336 9.3057 104.442 9.51086 104.392 9.55762C104.238 9.70479 103.372 9.61192 102.971 10.665L99.6045 19.543C99.5661 19.6398 99.2073 19.6906 99.1689 19.5938C97.8762 16.2278 96.5158 12.9233 95.0098 9.63867H94.0967C94.0158 9.63866 93.8842 9.55042 93.8623 9.5C93.841 9.44968 93.9302 9.30585 94.041 9.30566H97.5908ZM104.085 13.6934C104.743 12.7461 105.853 12.3027 107.079 12.4287C108.959 12.6235 109.817 14.2131 109.659 15.7871L106.921 15.7676L104.55 15.791C104.533 16.5321 104.632 17.2543 104.909 17.9229C105.289 18.8319 106.139 19.3785 107.275 19.2793H107.28C108.182 19.199 108.874 18.8011 109.301 18.125L109.51 18.2432C109.664 18.331 108.809 19.634 107.002 19.6455C105.627 19.6569 104.426 19.0535 103.828 17.9229C103.115 16.5704 103.201 14.9617 104.085 13.6934ZM113.803 14.0957C114.371 12.7509 115.837 12.0149 117.19 12.624C117.778 12.8891 118.096 13.5895 118.1 14.2422L118.142 18.2295L118.199 19.3535H118.962C119.005 19.3537 119.113 19.3885 119.151 19.4043C119.201 19.4245 119.14 19.6409 119.062 19.6416H116.344C116.251 19.6456 116.146 19.5944 116.127 19.543C116.108 19.4916 116.212 19.3578 116.273 19.3574H117.094C117.113 19.0648 117.147 18.7954 117.147 18.5146V14.2305C117.14 13.7795 116.923 13.2849 116.556 13.0752C115.84 12.668 114.97 12.9331 114.452 13.6055L114.444 13.6133C114.073 14.0997 113.83 14.681 113.791 15.2939C113.741 16.1286 113.744 16.964 113.775 17.8145L113.833 19.3613L114.723 19.3691C114.792 19.3691 114.796 19.6455 114.723 19.6455H111.83C111.757 19.6455 111.803 19.3574 111.873 19.3574H112.766L112.773 12.9609L111.962 12.9365C111.919 12.9365 111.841 12.9171 111.807 12.9092C111.757 12.8969 111.811 12.6652 111.876 12.6641C112.41 12.6641 113.196 12.6201 113.814 12.5449L113.803 14.0957ZM122.165 10.3457C122.231 10.3109 122.364 10.4538 122.36 10.5273L122.312 12.6182L123.954 12.5762C124.057 12.5763 124.079 12.9581 123.977 12.959L122.312 12.9668C122.294 14.7482 122.298 16.4567 122.379 18.2109C122.394 18.5632 122.586 18.9464 122.877 19.0625C123.762 19.4107 124.249 18.5059 124.411 18.6904V18.6865C124.629 18.9344 123.651 19.7635 122.574 19.6318C121.497 19.5001 121.398 18.528 121.401 17.5947L121.423 12.9707L120.343 12.959C120.277 12.959 120.199 12.7668 120.231 12.7119C120.361 12.4912 121.294 12.7616 121.696 11.9639C122.098 11.1662 121.951 10.4541 122.165 10.3457ZM136.393 13.1914C136.849 12.5022 137.73 12.2234 138.498 12.5342C138.982 12.7295 139.281 13.2434 139.189 13.7412C139.109 14.1754 138.75 14.4187 138.346 14.375C137.97 14.3391 137.681 14.0283 137.661 13.6299C137.641 13.2315 137.91 12.9604 138.334 12.8369C137.794 12.4903 137.185 12.7491 136.805 13.1953C136.321 13.7609 136.072 14.5259 136.028 15.3066C135.952 16.6652 136.009 17.9644 136.057 19.3389L136.945 19.3506C137.025 19.3515 137.064 19.6338 136.977 19.6338L134.035 19.6455L134.031 19.6416C133.951 19.6408 133.916 19.3712 133.976 19.3672L134.924 19.3389C134.948 19.0919 134.984 18.8172 134.984 18.5742L134.992 14.1641C134.992 13.7298 134.964 13.3349 134.94 12.8887H134.147C134.099 12.8886 133.991 12.8529 133.951 12.833C133.9 12.8084 133.968 12.6016 134.056 12.6016C134.568 12.6016 135.389 12.554 136.045 12.4902L136.061 13.6934L136.393 13.1914ZM140.994 13.6934C141.652 12.7459 142.764 12.3026 143.99 12.4287C145.87 12.6236 146.725 14.2132 146.571 15.7871L143.836 15.7676L141.46 15.791C141.451 16.5321 141.546 17.2543 141.823 17.9189C142.204 18.8282 143.054 19.3748 144.187 19.2793L144.19 19.2822C145.092 19.2058 145.789 18.8051 146.212 18.1289L146.422 18.2432C146.575 18.3282 145.728 19.6341 143.913 19.6455C142.537 19.657 141.34 19.0537 140.742 17.9268C140.024 16.5744 140.11 14.9655 140.994 13.6934ZM149.366 12.4863C151.05 12.1265 151.691 13.1525 152.102 12.5361C152.124 12.5018 152.223 12.4374 152.255 12.4219C152.3 12.3989 152.359 12.5134 152.363 12.5938L152.48 14.3857C152.48 14.4318 152.35 14.5422 152.318 14.5234C152.02 14.2976 152.179 13.9948 151.628 13.3555C151.226 12.8885 150.617 12.6707 149.944 12.7051C149.272 12.7395 148.721 13.1337 148.59 13.6582C148.454 14.2095 148.771 14.7573 149.407 15.0176L151.731 15.9746C152.463 16.2771 152.874 16.8242 152.905 17.54L152.914 17.5322C152.955 18.4088 152.413 19.1207 151.483 19.4385C149.863 19.9972 148.749 19.0412 148.319 19.1514C148.148 19.1973 148.165 19.3392 147.967 19.6377C147.94 19.676 147.751 19.5653 147.746 19.5078L147.646 17.5479C147.642 17.4177 147.638 17.3526 147.674 17.3066C147.994 16.9165 147.994 18.2448 149.299 18.9951C149.917 19.3509 150.734 19.4498 151.37 19.1016C151.871 18.8259 152.021 18.3247 151.953 17.8232C151.899 17.4098 151.542 17.0152 151.014 16.8008L148.951 15.9629C148.062 15.603 147.606 14.8754 147.691 14.0791C147.777 13.2829 148.432 12.6854 149.366 12.4863ZM84.1387 12.4131C85.8009 12.5162 86.5919 14.113 86.4639 15.7861L84.2529 15.7676L82.2129 15.7939C82.1666 17.2609 82.5267 19.2978 84.2852 19.2939L84.2812 19.2969C85.1 19.2969 85.7478 18.8538 86.1465 18.1738C86.1965 18.0864 86.3851 18.2888 86.3496 18.3613C85.9189 19.2018 85.1321 19.6254 84.2529 19.6445C83.1032 19.6713 82.0989 19.0604 81.6006 17.9258C81.0134 16.5888 81.0777 14.992 81.793 13.7314C82.309 12.8185 83.1635 12.3521 84.1387 12.4131ZM131.924 19.1123L132.794 19.1201L132.786 19.124C132.86 19.1246 132.914 19.4062 132.852 19.4062L130.868 19.4141V18.1152L130.55 18.5576C129.956 19.3711 129.004 19.7737 128.007 19.6094C127.009 19.445 126.547 18.5883 126.535 17.5947L126.485 12.7949L125.693 12.7832C125.635 12.7832 125.511 12.7208 125.499 12.666C125.48 12.5839 125.589 12.4824 125.689 12.4863C126.33 12.5137 126.885 12.5099 127.572 12.4121C127.487 14.1761 127.444 15.9362 127.51 17.7236C127.525 18.1774 127.689 18.6901 128.058 18.917C128.885 19.4333 129.905 19.0578 130.367 18.2246C130.709 17.6105 130.919 16.918 130.911 16.1826L130.868 12.8027L130.018 12.7715C129.948 12.7711 129.843 12.6465 129.858 12.5918C129.921 12.3728 131.318 12.592 131.947 12.4082L131.924 19.1123ZM72.1631 15.9189C71.4101 15.8616 70.7138 15.8697 70.0137 16.0684C69.1641 16.3092 68.6494 16.9393 68.6846 17.7148C68.7022 18.1275 68.803 18.567 69.1729 18.8574C69.8686 19.4 71.0051 19.3087 71.5996 18.6553C71.9871 18.2311 72.1147 17.7379 72.1279 17.2373L72.1631 15.9189ZM14.4443 18.6084L14.4473 18.6113C14.4449 18.6096 14.4428 18.6073 14.4404 18.6055C14.4418 18.6064 14.443 18.6075 14.4443 18.6084ZM16.3965 0C16.3965 0 17.0746 0.999074 17.9277 2.66504C17.4002 6.5872 13.4674 9.83978 13.2754 14.6924C13.1668 17.438 14.1034 18.3488 14.4404 18.6055C13.8769 18.2303 11.7509 16.5809 11.6006 13.0146C11.7708 9.04672 14.4907 7.98452 16.3965 0ZM107.678 13.0215C106.823 12.4026 105.584 12.693 105.102 13.5449C104.756 14.1561 104.614 14.7789 104.597 15.4512H108.48V15.4473C108.48 14.6376 108.293 13.4687 107.678 13.0215ZM144.602 13.0059C143.713 12.4329 142.512 12.6733 142.012 13.5479C141.67 14.1476 141.529 14.7788 141.512 15.4512H145.396C145.37 14.5611 145.276 13.6706 144.602 13.0059ZM84.8721 13.0928C84.5481 12.7111 84.0642 12.6505 83.6016 12.7422C82.5836 12.9485 82.2558 14.4684 82.2344 15.4502H85.4775C85.4525 14.5576 85.3626 13.6726 84.8721 13.0928ZM33.7178 15.3691L37.2461 15.3574H37.25C36.647 13.744 36.1382 12.3483 35.4668 10.8477L33.7178 15.3691ZM8.7793 14.4873C8.77679 14.4834 8.774 14.4795 8.77148 14.4756H8.77441C8.77612 14.4794 8.77759 14.4835 8.7793 14.4873ZM42.5938 9.33301C42.8981 9.19193 43.1688 9.61568 43.2266 10.1279C43.2895 10.687 43.1004 11.2407 42.8408 11.3457C42.5417 11.4659 42.2636 11.1946 42.1953 10.5674C42.1428 10.0917 42.2736 9.47939 42.5938 9.33301ZM20.3799 6.21582C20.3773 6.21188 20.3746 6.20804 20.3721 6.2041H20.375C20.3767 6.20796 20.3781 6.21196 20.3799 6.21582Z" fill="white"/>
</svg>
