<svg width="77" height="93" viewBox="0 0 77 93" fill="none" xmlns="http://www.w3.org/2000/svg">
<path d="M27.168 47.3594C53.678 89.0944 12.5029 107.163 0 80.3525C2.00466 84.6345 7.47842 87.8534 13.1611 88.0918C31.6309 90.3359 34.413 63.8121 27.168 47.3594ZM10.2666 83.2021L10.2754 83.2109C10.2597 83.2014 10.244 83.1908 10.2275 83.1807C10.2409 83.1878 10.2537 83.1953 10.2666 83.2021ZM17.3135 29.3682C17.3135 29.3682 19.7617 32.259 22.8418 37.0791C20.9375 48.4255 6.73936 57.834 6.0459 71.8721C5.65623 79.7668 8.9925 82.4195 10.2275 83.1807C8.15814 82.0715 0.540747 77.2966 0 67.0195C0.614273 55.5405 10.4336 52.4671 17.3135 29.3682ZM67.958 21.2549C94.467 62.9894 53.2919 81.0576 40.7891 54.2471C42.7937 58.529 48.2675 61.7479 53.9502 61.9863C72.42 64.2308 75.2026 37.7078 67.958 21.2549ZM47.7939 53.834L47.8027 53.8418C47.7908 53.8346 47.779 53.826 47.7666 53.8184C47.7758 53.8233 47.7849 53.8292 47.7939 53.834ZM54.8398 0C54.8398 0 57.288 2.89072 60.3682 7.71094C58.4636 19.0573 44.2655 28.4658 43.5723 42.5039C43.1813 50.4242 46.5413 53.067 47.7666 53.8184C45.7154 52.7217 38.068 47.9484 37.5264 37.6504C38.1407 26.1715 47.96 23.0987 54.8398 0ZM27.168 47.3594C27.1588 47.345 27.1498 47.3298 27.1406 47.3154H27.1494C27.1558 47.3298 27.1616 47.345 27.168 47.3594ZM67.958 21.2549C67.9488 21.2403 67.9399 21.2255 67.9307 21.2109H67.9395C67.9459 21.2255 67.9516 21.2403 67.958 21.2549Z" fill="white"/>
</svg>
